<?xml version="1.0" encoding="UTF-8" standalone="no"?>
<!-- Created with Inkscape (http://www.inkscape.org/) -->

<svg
   xmlns:dc="http://purl.org/dc/elements/1.1/"
   xmlns:cc="http://creativecommons.org/ns#"
   xmlns:rdf="http://www.w3.org/1999/02/22-rdf-syntax-ns#"
   xmlns:svg="http://www.w3.org/2000/svg"
   xmlns="http://www.w3.org/2000/svg"
   xmlns:sodipodi="http://sodipodi.sourceforge.net/DTD/sodipodi-0.dtd"
   xmlns:inkscape="http://www.inkscape.org/namespaces/inkscape"
   width="989.37"
   height="989.37"
   id="svg4700"
   version="1.1"
   inkscape:version="0.48.5 r10040"
   sodipodi:docname="icon6.svg">
  <defs
     id="defs4702">
    <inkscape:perspective
       sodipodi:type="inkscape:persp3d"
       inkscape:vp_x="-356.21142 : 205.65876 : 0"
       inkscape:vp_y="0 : 1000 : 0"
       inkscape:vp_z="342.23713 : 228.1575 : 0"
       inkscape:persp3d-origin="443.5476 : 96.011467 : 1"
       id="perspective5337" />
    <inkscape:perspective
       sodipodi:type="inkscape:persp3d"
       inkscape:vp_x="-356.21142 : 205.65876 : 0"
       inkscape:vp_y="0 : 1000 : 0"
       inkscape:vp_z="342.23713 : 228.1575 : 0"
       inkscape:persp3d-origin="570.61867 : 167.93025 : 1"
       id="perspective5260" />
    <inkscape:perspective
       sodipodi:type="inkscape:persp3d"
       inkscape:vp_x="-458.80113 : 180.25313 : 0"
       inkscape:vp_y="0 : 1004.876 : 0"
       inkscape:vp_z="440.80221 : 254.64243 : 0"
       inkscape:persp3d-origin="454.00688 : 73.021041 : 1"
       id="perspective4708" />
  </defs>
  <sodipodi:namedview
     id="base"
     pagecolor="#ffffff"
     bordercolor="#666666"
     borderopacity="1.0"
     inkscape:pageopacity="0.0"
     inkscape:pageshadow="2"
     inkscape:zoom="0.5"
     inkscape:cx="275.05553"
     inkscape:cy="427.50515"
     inkscape:document-units="px"
     inkscape:current-layer="layer1"
     showgrid="false"
     inkscape:window-width="1436"
     inkscape:window-height="855"
     inkscape:window-x="4"
     inkscape:window-y="0"
     inkscape:window-maximized="1"
     fit-margin-top="0"
     fit-margin-left="0"
     fit-margin-right="0"
     fit-margin-bottom="0" />
  <metadata
     id="metadata4705">
    <rdf:RDF>
      <cc:Work
         rdf:about="">
        <dc:format>image/svg+xml</dc:format>
        <dc:type
           rdf:resource="http://purl.org/dc/dcmitype/StillImage" />
        <dc:title></dc:title>
      </cc:Work>
    </rdf:RDF>
  </metadata>
  <g
     inkscape:label="Layer 1"
     inkscape:groupmode="layer"
     id="layer1"
     transform="translate(-170.82652,-31.678613)">
    <path
       inkscape:connector-curvature="0"
       id="path5383"
       style="fill:#e9e9ff;fill-opacity:1;fill-rule:evenodd;stroke:none"
       d="m 545.28987,31.677185 475.39513,186.772555 0,666.87319 -475.39513,-186.77256 z" />
    <path
       inkscape:connector-curvature="0"
       id="path5385"
       style="fill:#353564;fill-opacity:1;fill-rule:evenodd;stroke:none"
       d="m 503.53837,55.79617 0,666.87318 41.7515,-24.11898 0,-666.873185 z" />
    <path
       inkscape:connector-curvature="0"
       id="path5387"
       style="fill:#afafde;fill-opacity:1;fill-rule:evenodd;stroke:none"
       d="M 503.53837,722.66935 978.93351,909.44191 1020.685,885.32293 545.28987,698.55037 z" />
    <path
       inkscape:connector-curvature="0"
       id="path5389"
       style="fill:#607d8b;fill-opacity:1;fill-rule:evenodd;stroke:none"
       d="M 503.53837,55.79617 978.93351,242.56873 1020.685,218.44974 545.28987,31.677185 z" />
    <path
       inkscape:connector-curvature="0"
       id="path5391"
       style="fill:#cfd8dc;fill-opacity:1;fill-rule:evenodd;stroke:none"
       d="m 978.93351,242.56873 0,666.87318 41.75149,-24.11898 0,-666.87319 z" />
    <path
       inkscape:connector-curvature="0"
       id="path5393"
       style="fill:#90a4ae;fill-opacity:1;fill-rule:evenodd;stroke:none"
       d="m 503.53837,55.79617 475.39514,186.77256 0,666.87318 -475.39514,-186.77256 z" />
    <path
       inkscape:connector-curvature="0"
       id="path5369"
       style="fill:#e9e9ff;fill-opacity:1;fill-rule:evenodd;stroke:none"
       d="m 503.79046,55.768626 30.10091,11.826002 0,670.543682 -30.10091,-11.826 z" />
    <path
       inkscape:connector-curvature="0"
       id="path5371"
       style="fill:#353564;fill-opacity:1;fill-rule:evenodd;stroke:none"
       d="m 314.24126,165.26732 0,670.54369 189.5492,-109.4987 0,-670.543684 z" />
    <path
       inkscape:connector-curvature="0"
       id="path5373"
       style="fill:#afafde;fill-opacity:1;fill-rule:evenodd;stroke:none"
       d="m 314.24126,835.81101 30.10091,11.82599 189.5492,-109.49869 -30.10091,-11.826 z" />
    <path
       inkscape:connector-curvature="0"
       id="path5375"
       style="fill:#607d8b;fill-opacity:1;fill-rule:evenodd;stroke:none"
       d="M 314.24126,165.26732 344.34217,177.09333 533.89137,67.594628 503.79046,55.768626 z" />
    <path
       inkscape:connector-curvature="0"
       id="path5377"
       style="fill:#cfd8dc;fill-opacity:1;fill-rule:evenodd;stroke:none"
       d="m 344.34217,177.09333 0,670.54367 189.5492,-109.49869 0,-670.543682 z" />
    <path
       inkscape:connector-curvature="0"
       id="path5379"
       style="fill:#8686bf;fill-opacity:1;fill-rule:evenodd;stroke:none"
       d="m 314.24126,165.26732 30.10091,11.82601 0,670.54367 -30.10091,-11.82599 z" />
    <path
       inkscape:connector-curvature="0"
       id="path5341"
       style="fill:#f6f8f9;fill-opacity:1;fill-rule:evenodd;stroke:none"
       d="m 532.45591,78.340961 429.85737,168.881739 0,658.96294 -429.85737,-168.88175 z" />
    <path
       inkscape:connector-curvature="0"
       id="path5343"
       style="fill:#f6f8f9;fill-opacity:1;fill-rule:evenodd;stroke:none"
       d="m 385.4083,163.28735 0,658.96293 147.04761,-84.94639 0,-658.962929 z" />
    <path
       inkscape:connector-curvature="0"
       id="path5347"
       style="fill:#f6f8f9;fill-opacity:1;fill-rule:evenodd;stroke:none"
       d="M 385.4083,163.28735 815.26567,332.16911 962.31328,247.2227 532.45591,78.340961 z" />
    <path
       style="fill:#f6f8f9;fill-opacity:1;fill-rule:evenodd;stroke:none"
       d="m 962.3066,247.22139 -147.03351,84.95938 0,658.94746 13.36302,-7.70909 c -3.73689,-14.37131 18.20407,-39.61573 53.57285,-60.04755 30.3612,-17.53904 61.79699,-26.42425 80.09764,-23.92285 l 0,-652.22735 z"
       id="path5349"
       inkscape:connector-curvature="0" />
    <path
       inkscape:connector-curvature="0"
       id="path5351"
       style="fill:#f6f8f9;fill-opacity:1;fill-rule:evenodd;stroke:none"
       d="m 385.4083,163.28735 429.85737,168.88176 0,658.96293 L 385.4083,822.25028 z" />
    <path
       inkscape:connector-curvature="0"
       id="path5355"
       style="fill:#e9e9ff;fill-opacity:1;fill-rule:evenodd;stroke:none"
       d="m 352.08951,143.28533 475.39514,186.77255 0,666.87318 -475.39514,-186.77255 z" />
    <path
       inkscape:connector-curvature="0"
       id="path5357"
       style="fill:#353564;fill-opacity:1;fill-rule:evenodd;stroke:none"
       d="m 310.33803,167.40431 0,666.87319 41.75148,-24.11899 0,-666.87318 z" />
    <path
       inkscape:connector-curvature="0"
       id="path5359"
       style="fill:#afafde;fill-opacity:1;fill-rule:evenodd;stroke:none"
       d="M 310.33803,834.2775 785.73315,1021.05 827.48465,996.93106 352.08951,810.15851 z" />
    <path
       inkscape:connector-curvature="0"
       id="path5361"
       style="fill:#607d8b;fill-opacity:1;fill-rule:evenodd;stroke:none"
       d="M 310.33803,167.40431 785.73315,354.17687 827.48465,330.05788 352.08951,143.28533 z" />
    <path
       inkscape:connector-curvature="0"
       id="path5363"
       style="fill:#cfd8dc;fill-opacity:1;fill-rule:evenodd;stroke:none"
       d="m 785.73315,354.17687 0,666.87313 41.7515,-24.11894 0,-666.87318 z" />
    <path
       inkscape:connector-curvature="0"
       id="path5365"
       style="fill:#90a4ae;fill-opacity:1;fill-rule:evenodd;stroke:none"
       d="m 310.33803,167.40431 475.39512,186.77256 0,666.87313 -475.39512,-186.7725 z" />
    <path
       style="fill:none;stroke:#546e7a;stroke-width:1.13766551px;stroke-linecap:butt;stroke-linejoin:miter;stroke-opacity:1"
       d="M 883.8247,921.39048 883.81311,275.96861 469.82383,114.87862"
       id="path5500"
       inkscape:connector-curvature="0"
       sodipodi:nodetypes="ccc" />
    <path
       sodipodi:nodetypes="ccc"
       inkscape:connector-curvature="0"
       id="path5504"
       d="M 847.3945,948.35682 848.67105,305.97645 425.5742,139.58955"
       style="fill:none;stroke:#546e7a;stroke-width:1.13766551px;stroke-linecap:butt;stroke-linejoin:miter;stroke-opacity:1" />
    <path
       style="fill:none;stroke:#546e7a;stroke-width:1.13766551px;stroke-linecap:butt;stroke-linejoin:miter;stroke-opacity:1"
       d="M 927.44943,903.69397 927.43783,259.38319 503.97715,94.676933"
       id="path5506"
       inkscape:connector-curvature="0"
       sodipodi:nodetypes="ccc" />
    <g
       transform="matrix(1,0.36396871,0,1,788.81497,252.66969)"
       style="font-size:40px;font-style:normal;font-weight:normal;line-height:125%;letter-spacing:0px;word-spacing:0px;fill:#ffff8d;fill-opacity:1;stroke:none;font-family:Sans"
       id="flowRoot5516">
      <path
         d="m -396.28,407.31178 0,-112.28 c -4e-5,-13.81317 -4.76004,-20.71983 -14.28,-20.72 -1.49336,1.7e-4 -3.45336,0.18683 -5.88,0.56 -3.54668,0.56017 -6.06668,0.84017 -7.56,0.84 -5.97334,1.7e-4 -8.96001,-3.07983 -8.96,-9.24 -1e-5,-6.53315 4.10666,-9.79982 12.32,-9.8 1.30665,1.8e-4 2.70665,0.0935 4.2,0.28 l 13.72,1.68 c 4.47996,0.56018 10.07995,0.84018 16.8,0.84 4.66661,1.8e-4 10.2666,-0.27982 16.8,-0.84 15.30658,-1.30648 26.8799,-1.95982 34.72,-1.96 11.94655,1.8e-4 22.21321,0.93352 30.8,2.8 12.31985,2.61351 21.93318,8.40017 28.84,17.36 7.09316,8.96016 10.63983,19.78681 10.64,32.48 -1.7e-4,17.54678 -6.06683,30.98677 -18.2,40.32 -11.94681,9.33342 -29.30679,14.00008 -52.08,14 l -19.88,0 c -6.16008,8e-5 -9.80007,-0.0933 -10.92,-0.28 l -0.56,0 c -2.98674,8e-5 -4.94673,0.56008 -5.88,1.68 -0.74673,0.93341 -1.12007,3.26674 -1.12,7 l 0,5.6 c -7e-5,23.70671 0.65327,38.08003 1.96,43.12 1.49326,5.04002 5.59993,7.56001 12.32,7.56 2.05325,10e-6 4.01325,-0.27999 5.88,-0.84 4.10658,-0.37332 6.62657,-0.55999 7.56,-0.56 5.78657,10e-6 8.6799,2.98668 8.68,8.96 -10e-5,6.72 -4.10676,10.08 -12.32,10.08 -9e-5,0 -1.30675,-0.18667 -3.92,-0.56 l -14,-1.96 c -3.92007,-0.56 -9.80006,-0.84 -17.64,-0.84 -6.53338,0 -11.85338,0.28 -15.96,0.84 l -16.24,2.24 c -0.37335,0 -0.93335,0.0933 -1.68,0.28 -0.74669,0 -1.40002,0 -1.96,0 -8.40001,0 -12.60001,-3.26667 -12.6,-9.8 -10e-6,-2.61333 0.83999,-4.75999 2.52,-6.44 1.67999,-1.86665 3.73332,-2.79999 6.16,-2.8 2.05332,10e-6 4.57331,0.28001 7.56,0.84 1.30664,0.37335 3.26664,0.56001 5.88,0.56 9.51996,10e-6 14.27996,-6.99998 14.28,-21 m 25.48,-126.84 c -1.30673,1.86683 -1.96007,7.00015 -1.96,15.4 l 0,41.44 c -7e-5,5.0401 3.5466,7.93343 10.64,8.68 -0.56008,9e-5 4.85325,9e-5 16.24,0 13.25323,9e-5 24.26655,-1.02657 33.04,-3.08 16.61319,-3.9199 24.91985,-14.83989 24.92,-32.76 -1.5e-4,-23.70651 -15.12013,-35.55983 -45.36,-35.56 -22.40008,1.7e-4 -34.90674,1.96016 -37.52,5.88"
         style="font-size:280px;font-variant:normal;font-stretch:normal;fill:#ffff8d;fill-opacity:1;font-family:American Typewriter;-inkscape-font-specification:American Typewriter"
         id="path5563"
         inkscape:connector-curvature="0" />
      <path
         d="m -113.27875,412.91178 -10.08,-27.44 c -1.12014,-2.98661 -2.33347,-4.85327 -3.64,-5.6 -1.12013,-0.7466 -3.5468,-1.11994 -7.28,-1.12 l -49.84,0 c -3.73341,6e-5 -6.34674,0.65339 -7.84,1.96 -1.30673,1.30673 -3.08006,4.85339 -5.32,10.64 l -8.12,21.56 c -0.74672,2.05336 -1.12005,4.01336 -1.12,5.88 -5e-5,5.97335 3.63994,8.96001 10.92,8.96 1.8666,1e-5 4.47993,-0.18665 7.84,-0.56 3.54659,-0.37332 6.15992,-0.55999 7.84,-0.56 7.65325,1e-5 11.47991,3.26668 11.48,9.8 -9e-5,6.16 -4.20009,9.24 -12.6,9.24 -1.49341,0 -3.54674,-0.18667 -6.16,-0.56 l -14,-1.96 c -2.61339,-0.37334 -6.90672,-0.56 -12.88,-0.56 -6.53337,0 -11.1067,0.18666 -13.72,0.56 l -11.76,1.68 c -5.22668,0.74666 -9.05334,1.12 -11.48,1.12 -7.28,0 -10.92,-3.08 -10.92,-9.24 0,-6.53332 3.54667,-9.79999 10.64,-9.8 1.49332,10e-6 2.61332,0.0933 3.36,0.28 l 3.64,0 c 5.03998,1e-5 8.86664,-1.95998 11.48,-5.88 1.11997,-1.49331 2.98664,-5.87997 5.6,-13.16 l 52.08,-140.84 c 2.98658,-7.83982 8.86657,-11.75981 17.64,-11.76 8.58656,1.9e-4 14.27988,3.92018 17.08,11.76 l 50.12,138.88 c 3.173161,8.77336 6.066491,14.56002 8.68,17.36 2.613153,2.80001 6.346482,4.20001 11.2,4.2 1.493143,1e-5 2.613141,-0.0933 3.36,-0.28 5.226469,-0.37332 7.8398,-0.55999 7.84,-0.56 7.093126,10e-6 10.639789,2.98668 10.64,8.96 -2.11e-4,6.34667 -3.546874,9.52 -10.64,9.52 -2.053532,0 -4.760196,-0.18667 -8.12,-0.56 -11.760181,-1.30667 -20.533505,-1.96 -26.32,-1.96 -6.90683,0 -18.10681,0.74666 -33.6,2.24 -3.92013,0.37333 -6.90679,0.56 -8.96,0.56 -7.46678,0 -11.20011,-3.17333 -11.2,-9.52 -1.1e-4,-6.34666 4.10655,-9.51999 12.32,-9.52 1.67987,1e-5 4.10654,0.18668 7.28,0.56 3.35986,0.37335 5.87986,0.56001 7.56,0.56 6.15985,1e-5 9.23985,-2.51998 9.24,-7.56 -1.5e-4,-0.74665 -0.74681,-3.17331 -2.24,-7.28 m -20.16,-57.12 -25.2,-77.28 -25.76,77.28 c -0.37341,1.12008 -0.56007,1.77342 -0.56,1.96 -7e-5,1.68008 1.39992,2.52008 4.2,2.52 l 44.52,0 c 2.23987,8e-5 3.35987,-0.74659 3.36,-2.24 -1.3e-4,-0.37325 -0.18679,-1.11992 -0.56,-2.24"
         style="font-size:280px;font-variant:normal;font-stretch:normal;fill:#ffff8d;fill-opacity:1;font-family:American Typewriter;-inkscape-font-specification:American Typewriter"
         id="path5565"
         inkscape:connector-curvature="0" />
    </g>
  </g>
</svg>
